<svg xmlns="http://www.w3.org/2000/svg" viewBox="0 0 100 100">
  <defs>
    <filter id="f1" x="-20%" y="-20%" width="140%" height="140%">
      <feGaussianBlur in="SourceGraphic" stdDeviation="1" />
    </filter>
  </defs>
  <g fill="#ffb7c5" stroke="#ff9eb5" stroke-width="1">
    <!-- 5 Petals -->
    <path d="M50 50 Q30 5 50 5 Q70 5 50 50" />
    <path d="M50 50 Q95 30 95 50 Q95 70 50 50" />
    <path d="M50 50 Q80 95 50 95 Q20 95 50 50" />
    <path d="M50 50 Q5 70 5 50 Q5 30 50 50" />
    <path d="M50 50 Q20 20 35 15 Q40 10 50 50" transform="rotate(-36 50 50)" /> 
    <!-- Adjusting petal shapes for better flower look -->
    <path d="M50 50 C30 20 20 20 30 50 Z" transform="rotate(0 50 50)" fill="#ffc0cb"/>
    <path d="M50 50 C70 20 80 20 70 50 Z" transform="rotate(72 50 50)" fill="#ffc0cb"/>
    <path d="M50 50 C90 60 90 70 60 70 Z" transform="rotate(144 50 50)" fill="#ffc0cb"/>
    <path d="M50 50 C30 80 20 80 30 50 Z" transform="rotate(216 50 50)" fill="#ffc0cb"/>
    <path d="M50 50 C10 40 10 30 40 30 Z" transform="rotate(288 50 50)" fill="#ffc0cb"/>
  </g>
  <!-- Center -->
  <circle cx="50" cy="50" r="8" fill="#fff59d" />
  <circle cx="50" cy="50" r="3" fill="#ffeb3b" />
</svg>
